<svg id="be987cda-82b1-4aac-a2e2-e923b2577ec1" data-name="Layer 1" xmlns="http://www.w3.org/2000/svg" viewBox="0 0 2245.72 284.97"><defs><style>.b363ba69-a8e7-47b5-a833-27ae253bd91f{fill:#fa0;}.adb39e28-3a06-4df8-a9fe-890c511bf606{fill:#f50;}.a3d39855-5533-416a-864c-156b8d3a2c96{isolation:isolate;}</style></defs><title>Shiift Bar Logo RGB</title><g id="ed878b34-d166-4d46-8e87-4967b5a0f1ff" data-name="Shiift"><path d="M699.62,110.38H736v40.8H699.62v147.2H641.09V151.18h0v-40.8h0V95.31c0-21.29,6.21-38.13,18.62-49.66s30.16-17.73,53.21-17.73a101.68,101.68,0,0,1,27.49,3.54V74.92a55.64,55.64,0,0,0-14.19-1.78c-17.73,0-26.6,8-26.6,23.06ZM137.42,246.06c0,5.32-2.66,8.86-6.21,12.41-3.55,2.66-9.75,4.44-17.74,4.44a37.85,37.85,0,0,1-21.28-6.21c-5.32-3.55-8.86-9.75-8.86-18.62h-55a51,51,0,0,0,9.75,30.14C45.2,278.86,55,286,67.37,292.16c13.3,6.22,27.49,8.87,43.45,8.87,24.83,0,44.34-5.32,59.41-16s23.05-24.83,23.05-41.68c0-24.83-14.18-42.56-42.56-52.32A177.51,177.51,0,0,0,121.46,184c-11.53-1.77-19.51-4.43-24.83-8a13.37,13.37,0,0,1-8-12.41,15.44,15.44,0,0,1,6.2-12.41c3.55-3.55,8.87-5.33,15.08-5.33,16,0,23.94,7.1,23.94,22.17H192.4c0-18.62-7.1-32.81-22.17-44.33s-34.59-16.85-59.42-16.85c-23,0-41.67,5.32-55.86,16.85a51.68,51.68,0,0,0-21.28,42.56c0,9.75,1.77,18.62,7.09,25.71a59.89,59.89,0,0,0,22.17,19.52c9.75,5.32,22.17,8.86,36.36,12.41,15.07,3.55,24.83,7.1,30.15,9.75,5.32,3.55,8,7.1,8,12.42m141-218.14H219.89V298.38h58.52V163.6c5.31-8,13.3-11.53,25.71-11.53,9.76,0,16.85,2.66,20.4,7.09,4.44,4.44,6.21,12.42,6.21,22.17v117h58.52V179.55c0-23.94-5.32-41.68-16-54.09s-26.59-18.62-47-18.62q-29.26,0-47.89,23.94Zm509,35.47v47H763.46v40.78h23.95v94c0,19.51,4.43,33.7,14.18,43.45,8.87,9.76,23.94,14.19,44.34,14.19a101.63,101.63,0,0,0,32.81-5.32V255.81c-3.55.89-8,.89-14.19.89-7.09,0-12.41-1.78-15.07-4.44s-3.55-8-3.55-15.07v-86h31V110.39h-31v-47Zm-207.62,23h.62a29,29,0,0,0,28.64-29.26,29.27,29.27,0,1,0-29.26,29.26h0m-96.19,0a29.26,29.26,0,1,0-29.26-29.26A29.52,29.52,0,0,0,483.6,86.44h0" transform="translate(-28.35 -27.59)"/><path id="aa00cf96-81e4-4a7a-babd-86d74b59081f" data-name="Path 8083" class="b363ba69-a8e7-47b5-a833-27ae253bd91f" d="M438.91,220.34,415.86,168a66.08,66.08,0,0,0,39-60.3h57.64a123.53,123.53,0,0,1-73.6,112.62" transform="translate(-28.35 -27.59)"/><path id="b10add58-f5f3-4c32-ab6b-8e6737759ac5" data-name="Path 8084" class="adb39e28-3a06-4df8-a9fe-890c511bf606" d="M608.28,107.72H551.53a171.59,171.59,0,0,1-93.11,152.52l23.94,52.32c77.15-38.13,125.92-117.93,125.92-204.84" transform="translate(-28.35 -27.59)"/></g><rect id="a1c6d025-c9c4-4e6d-be19-db12d74b5b4d" data-name="Divider" class="b363ba69-a8e7-47b5-a833-27ae253bd91f" x="956.34" width="7.89" height="273.94"/><path id="b3c992af-e384-4e5e-99fa-4a861a0d4453" data-name="Roles" class="a3d39855-5533-416a-864c-156b8d3a2c96" d="M1112.36,214a58.05,58.05,0,0,1,22.17-4.08q12.21,0,20.11,2.55-.35,14-7.55,23.18a44.09,44.09,0,0,0-11.41-1.23,26.18,26.18,0,0,0-12,2.54V298.1a83.41,83.41,0,0,1-13.34,1,86.81,86.81,0,0,1-13.52-1v-75Q1102.41,218.11,1112.36,214Zm125.21,74.37q-13.21,12.6-33.81,12.6t-33.54-12.34q-12.95-12.33-13-33t13.22-33.27q13.21-12.64,33.84-12.65t33.54,12.52q12.92,12.51,12.91,33T1237.57,288.4Zm-48.16-16q5.27,6.31,14.62,6.32t14.57-6.32q5.22-6.33,5.23-16.91t-5.23-16.9q-5.22-6.31-14.57-6.32t-14.62,6.32q-5.27,6.33-5.27,16.9T1189.41,272.38Zm90,26.77a92.53,92.53,0,0,1-13.87-1V180.36a83.46,83.46,0,0,1,27,0V298.1A77.63,77.63,0,0,1,1279.4,299.15Zm113-49.6a79.11,79.11,0,0,1-.88,12.55h-56.81q2.37,17.47,21,17.47,11.85,0,25.2-8.6,8.43,6.5,9.74,18.17-15.8,12-36.92,12t-33.76-12q-12.63-12-12.64-32.53T1320,223.25q12.69-12.85,31.39-12.86t29.85,10.67Q1392.4,231.72,1392.4,249.55ZM1367,247a17.86,17.86,0,0,0-3.6-11.41c-2.4-3-6.14-4.63-11.23-4.74s-9.13,1.28-12.12,4.21-4.77,6.91-5.36,11.94Zm73.14,54.17a72.54,72.54,0,0,1-22.92-3.25q-9.73-3.24-14.83-7.55,2.19-12.72,10.62-18,13.7,8.6,28.1,8.6,11.14,0,11.06-6.76,0-3.42-4-5.49t-12.29-3.6a90.8,90.8,0,0,1-12.64-3.07,41.2,41.2,0,0,1-9-4.52q-9.3-6-9.31-19.19t10.49-20.59q10.5-7.37,27.09-7.37,22.31,0,34.68,7.9-1.57,12.56-9.31,18.7a48.4,48.4,0,0,0-24.27-6.32q-13.12,0-13.13,6.15,0,3.24,3.51,4.83t13.7,3.6q14.74,2.53,23,8.38t8.21,19q0,13.14-10.1,20.86T1440.16,301.17Z" transform="translate(-28.35 -27.59)"/><path id="ac348a5a-fa24-4beb-96e5-1481aecb6e0d" data-name="bar" class="adb39e28-3a06-4df8-a9fe-890c511bf606" d="M1138.29,71.75q20.88,0,33.86,11.58t13,32.91q0,21.22-13.6,33.6t-36.24,12.38q-22.63,0-38.43-8.17V41.3a70,70,0,0,1,13.34-1,73,73,0,0,1,13.51,1V73.85A46.17,46.17,0,0,1,1138.29,71.75Zm-1.85,67.91q10.27,0,16.06-6.14t5.7-16.23q0-10.19-5.79-16.41t-16-6.14a37.55,37.55,0,0,0-12.72,2.1v40.81A42.3,42.3,0,0,0,1136.44,139.66Zm98.28-67.91q19.56,0,30.71,9t11.14,28.34v44.75a108.44,108.44,0,0,1-41.15,8.42q-40.62,0-40.63-28.08,0-13.15,10.18-20.13t27-6.8a70.61,70.61,0,0,1,18,2.54v-3.42q0-12.55-17.64-12.64-13.51,0-23.17,7.37-9.73-5.34-11.49-17,5-4.47,14.83-8.42A59.15,59.15,0,0,1,1234.72,71.75Zm-13.16,61.42a8.85,8.85,0,0,0,4,7.63q3.95,2.82,10.79,2.81a48.09,48.09,0,0,0,13.69-2V126a49.79,49.79,0,0,0-14.75-1.93Q1221.56,124.05,1221.56,133.17Zm87-57.78a57.87,57.87,0,0,1,22.15-4.08q12.19,0,20.1,2.54-.36,14-7.55,23.17a44,44,0,0,0-11.41-1.23,26,26,0,0,0-11.93,2.55v61.07a83.41,83.41,0,0,1-13.34,1.05,86.68,86.68,0,0,1-13.51-1.05V84.47Q1298.59,79.47,1308.56,75.39Zm185.18,23.74a28,28,0,0,1-1.75,10.53h-15.62v40.45q-15.09,11.83-39.92,11.84-19.21.09-32.38-8.33T1391,127.38q0-20.88,18.69-29-13.86-8.25-13.86-24.84,0-14.2,10.35-23.07t27.56-8.87q21.75,0,33.43,9.66a27.46,27.46,0,0,1-11.32,19.56q-9.21-5.52-17.64-5.52-16,0-16,11.93t17.11,11.93h52.47A22,22,0,0,1,1493.74,99.13Zm-41.67,10.53h-14.39q-18.53.34-18.52,14.56a13.05,13.05,0,0,0,4.65,10.27q4.56,3.85,13,3.86a42.4,42.4,0,0,0,15.27-2.63Zm191.72-38.53q17.37,0,27.47,9.48t10.09,25.1v53.7a87.5,87.5,0,0,1-27,0V111.59q0-16.16-15.09-16.15a24,24,0,0,0-14.39,4.83c.23,2.4.38,4.21.44,5.44v53.7a86.81,86.81,0,0,1-13.52,1.05,83.28,83.28,0,0,1-13.33-1.05V111.59q0-16.16-15.27-16.15a25.85,25.85,0,0,0-13.78,3.6v60.37a89,89,0,0,1-13.51,1.05,85.66,85.66,0,0,1-13.34-1.05V85.35q6.15-5.17,17.64-9.65t27.29-4.57q15.8,0,26.06,8.16Q1626.42,71.13,1643.79,71.13Zm80.68-12.81A15.69,15.69,0,0,1,1713,63.06a16.18,16.18,0,0,1-16.14-16.14,15.25,15.25,0,0,1,4.74-11.32A15.68,15.68,0,0,1,1713,31a15.84,15.84,0,0,1,11.45,4.65,15.19,15.19,0,0,1,4.79,11.32A15.47,15.47,0,0,1,1724.47,58.32Zm-11.36,102.14a87.74,87.74,0,0,1-13.51-1.05V74a82,82,0,0,1,13.12-1,92.22,92.22,0,0,1,13.64,1v85.38A82.93,82.93,0,0,1,1713.11,160.46Zm103.63,0a133.45,133.45,0,0,1-16.23-.7l-18-26.24L1766,159.76a132.82,132.82,0,0,1-14.83.7,60.74,60.74,0,0,1-14.3-1.4l30-42.21-29.48-41q5.52-2.37,15.61-2.37a119.44,119.44,0,0,1,13.87.53l16.93,26.06,16-26.06a139.73,139.73,0,0,1,14-.53q9.21,0,14.74,2.37L1799.45,117l31.24,42Q1827.8,160.46,1816.74,160.46Zm94.54-10.75q-13.2,12.6-33.78,12.59T1844,150Q1831,137.65,1831,117t13.21-33.26q13.2-12.63,33.82-12.64t33.52,12.51q12.9,12.49,12.9,33T1911.28,149.71Zm-48.12-16q5.27,6.31,14.61,6.32t14.56-6.32q5.22-6.31,5.22-16.89t-5.22-16.9q-5.22-6.31-14.56-6.31t-14.61,6.31q-5.27,6.33-5.27,16.9T1863.16,133.7Zm89.94,26.76a92.53,92.53,0,0,1-13.87-1.05V41.74a83.4,83.4,0,0,1,26.94,0V159.41A77.51,77.51,0,0,1,1953.1,160.46Zm108.14-10.75q-13.2,12.6-33.78,12.59T1993.94,150Q1981,137.65,1981,117t13.21-33.26q13.2-12.63,33.82-12.64t33.52,12.51q12.9,12.49,12.9,33T2061.24,149.71Zm-48.13-16q5.27,6.31,14.62,6.32t14.56-6.32q5.22-6.31,5.22-16.89t-5.22-16.9q-5.22-6.31-14.56-6.31t-14.62,6.31q-5.27,6.33-5.26,16.9T2013.11,133.7Zm85.12-50.46q13.77-12.1,35.67-12.11t37.77,12.46v70.64q0,20.27-12.33,30.89t-32.42,10.61q-27.65,0-42.12-16a20.88,20.88,0,0,1,4.79-10.05,22.16,22.16,0,0,1,9.78-6.8,33.18,33.18,0,0,0,26.06,11.67q19.4,0,19.39-15.44V156a48.83,48.83,0,0,1-14.48,2q-19.74,0-32.81-11t-13.08-31.33Q2084.45,95.36,2098.23,83.24Zm19.13,47.43a19.33,19.33,0,0,0,14,5.75,35.6,35.6,0,0,0,13.47-2.2V96.14a33.23,33.23,0,0,0-12-2.37,21.23,21.23,0,0,0-15.22,5.79q-6.1,5.81-6.1,15.58T2117.36,130.67Zm141.22-57a61.22,61.22,0,0,1,15.49,2.19q-5.52,41.34-21.8,71.52a146.36,146.36,0,0,1-44.89,50.45,21.25,21.25,0,0,1-10-7.11,34.36,34.36,0,0,1-6-11.4q16.15-12.74,23.35-22.64a205.39,205.39,0,0,1-19.48-37.82,300.18,300.18,0,0,1-12.46-43.17,69.21,69.21,0,0,1,16.58-2,120.27,120.27,0,0,1,13,.53A244.24,244.24,0,0,0,2229,132.29q1.05,2.55,1.76,4.83a17.9,17.9,0,0,1,1.49-4.83q9.56-22.11,14-58.08A123.91,123.91,0,0,1,2258.58,73.68Z" transform="translate(-28.35 -27.59)"/></svg>