<svg id="b1550098-8600-4502-8f38-5c10d4771530" data-name="Layer 1" xmlns="http://www.w3.org/2000/svg" viewBox="0 0 1721.48 284.97"><defs><style>.bb423e72-56dc-4b86-9693-7b7b02733ef1,.f8c51e4a-4439-4777-9261-876b48a935d6{fill:#fff;}.a6d810a7-23a2-49e7-b392-56bc35436852{fill:#fa0;}.a8fc7f95-fa7b-4923-92b5-7b27286109af,.ed347d3f-7558-4831-a041-c6d4878b6684{fill:#f50;}.bb423e72-56dc-4b86-9693-7b7b02733ef1,.e844c298-244a-4b44-a703-6b5496d44d0a,.ed347d3f-7558-4831-a041-c6d4878b6684{isolation:isolate;}</style></defs><title>Shiift Catering Logo RGB Reverse</title><g id="b4e9c73e-ca50-4734-9342-e70dce2ebb98" data-name="Shiift"><path class="f8c51e4a-4439-4777-9261-876b48a935d6" d="M699.19,110.38h36.36v40.8H699.19v147.2H640.67V151.18h0v-40.8h0V95.31c0-21.29,6.2-38.13,18.62-49.66s30.15-17.73,53.21-17.73A101.68,101.68,0,0,1,740,31.46V74.92a55.75,55.75,0,0,0-14.19-1.78c-17.74,0-26.61,8-26.61,23.06ZM137,246.06c0,5.32-2.66,8.86-6.21,12.41-3.54,2.66-9.75,4.44-17.73,4.44a37.83,37.83,0,0,1-21.28-6.21c-5.32-3.55-8.87-9.75-8.87-18.62h-55a51,51,0,0,0,9.76,30.14c7.09,10.64,16.85,17.73,29.26,23.94,13.31,6.22,27.49,8.87,43.45,8.87,24.83,0,44.34-5.32,59.42-16s23.05-24.83,23.05-41.68c0-24.83-14.19-42.56-42.56-52.32A177.38,177.38,0,0,0,121,184c-11.53-1.77-19.51-4.43-24.83-8a13.38,13.38,0,0,1-8-12.41,15.48,15.48,0,0,1,6.21-12.41c3.55-3.55,8.87-5.33,15.07-5.33,16,0,23.95,7.1,23.95,22.17H192c0-18.62-7.09-32.81-22.17-44.33s-34.58-16.85-59.41-16.85c-23.06,0-41.68,5.32-55.86,16.85a51.71,51.71,0,0,0-21.29,42.56c0,9.75,1.78,18.62,7.1,25.71a59.74,59.74,0,0,0,22.17,19.52c9.75,5.32,22.16,8.86,36.35,12.41,15.08,3.55,24.83,7.1,30.15,9.75,5.33,3.55,8,7.1,8,12.42M278,27.92H219.46V298.38H278V163.6c5.32-8,13.3-11.53,25.72-11.53,9.76,0,16.85,2.66,20.4,7.09,4.43,4.44,6.21,12.42,6.21,22.17v117h58.52V179.55c0-23.94-5.32-41.68-16-54.09s-26.6-18.62-47-18.62q-29.26,0-47.88,23.94ZM787,63.39v47H763v40.78H787v94c0,19.51,4.44,33.7,14.19,43.45,8.87,9.76,23.94,14.19,44.34,14.19a101.68,101.68,0,0,0,32.81-5.32V255.81c-3.55.89-8,.89-14.19.89-7.1,0-12.42-1.78-15.08-4.44s-3.54-8-3.54-15.07v-86h31V110.39h-31v-47Zm-207.62,23H580a29,29,0,0,0,28.65-29.26,29.27,29.27,0,1,0-29.27,29.26h0m-96.18,0a29.26,29.26,0,1,0-29.26-29.26,29.52,29.52,0,0,0,29.26,29.26h0" transform="translate(-27.92 -27.59)"/><path id="ba227b0d-eac8-46d1-a458-04b5eaa1ebcb" data-name="Path 8083" class="a6d810a7-23a2-49e7-b392-56bc35436852" d="M438.49,220.34,415.43,168a66.07,66.07,0,0,0,39-60.3h57.64a123.55,123.55,0,0,1-73.6,112.62" transform="translate(-27.92 -27.59)"/><path id="fe089ea0-0d13-45c1-b121-40e786aacae0" data-name="Path 8084" class="a8fc7f95-fa7b-4923-92b5-7b27286109af" d="M607.86,107.72H551.11A171.6,171.6,0,0,1,458,260.24l23.94,52.32c77.15-38.13,125.92-117.93,125.92-204.84" transform="translate(-27.92 -27.59)"/></g><rect id="a19f9cf6-95ab-4f51-8e96-81c2db1265ed" data-name="Divider" class="a6d810a7-23a2-49e7-b392-56bc35436852" x="956.34" width="7.89" height="273.94"/><g id="b4ccb52d-d3c1-40a4-b89c-d76750e1a668" data-name="catering roles" class="e844c298-244a-4b44-a703-6b5496d44d0a"><path id="bda0526c-54b9-46bf-99d0-777a4da2a21e" data-name="Catering" class="ed347d3f-7558-4831-a041-c6d4878b6684" d="M1137.67,162.37q-20,0-32.58-12.07t-12.6-33.1q0-21,13-33.63T1138.76,71a51.73,51.73,0,0,1,17.34,2.9q8.22,2.89,12.34,6.67a28.88,28.88,0,0,1-5,10.58,31.16,31.16,0,0,1-8.82,8.3,22.77,22.77,0,0,0-15.68-6q-9,0-14.17,6.41t-5.18,16.64q0,10.23,5.09,16.81t14.84,6.59a23.9,23.9,0,0,0,16.68-6.33q10.27,5,13.69,17.65Q1157.65,162.38,1137.67,162.37Zm79.23-90.78q19.57,0,30.73,9T1258.78,109v44.78a108.59,108.59,0,0,1-41.17,8.43q-40.66,0-40.66-28.1,0-13.17,10.19-20.15t27-6.8a70.62,70.62,0,0,1,18,2.54v-3.42q0-12.55-17.65-12.64-13.52,0-23.18,7.37-9.74-5.35-11.5-17,5-4.48,14.84-8.43A59.2,59.2,0,0,1,1216.9,71.59Zm-13.17,61.46a8.91,8.91,0,0,0,4,7.64q4,2.81,10.8,2.81a48.41,48.41,0,0,0,13.7-2V125.85a49.74,49.74,0,0,0-14.75-1.93Q1203.73,123.92,1203.73,133.05Zm113.53,29q-15.63,0-25-7.11t-9.35-22V97.23h-14.58a73.69,73.69,0,0,1-.87-10.89,75.39,75.39,0,0,1,.87-11h14.58V52.89a81.14,81.14,0,0,1,26.6,0V75.36h29.85A53.39,53.39,0,0,1,1340.61,86a62.76,62.76,0,0,1-1.23,11.24h-29.85v29q0,7,3,10t9.22,2.94q6.2,0,12-5.05a22,22,0,0,1,7.2,7.68,27.06,27.06,0,0,1,4,10.67A43.16,43.16,0,0,1,1317.26,162Zm118.61-51.27a78,78,0,0,1-.88,12.55h-56.8q2.37,17.47,21,17.47,11.86,0,25.2-8.6,8.43,6.5,9.75,18.17-15.81,12-36.92,12t-33.76-12q-12.64-12-12.64-32.53t12.68-33.41q12.69-12.86,31.39-12.86t29.85,10.67Q1435.88,92.93,1435.87,110.75Zm-25.37-2.55a17.84,17.84,0,0,0-3.6-11.41q-3.6-4.58-11.24-4.74t-12.12,4.21q-4.47,4.39-5.35,11.94Zm55.53-33a58,58,0,0,1,22.17-4.08q12.21,0,20.11,2.55-.36,14-7.55,23.17a44.67,44.67,0,0,0-11.42-1.22,26,26,0,0,0-11.94,2.54V159.3a83.5,83.5,0,0,1-13.34,1,86.71,86.71,0,0,1-13.52-1v-75Q1456.06,79.31,1466,75.23Zm77.62-17.07a15.74,15.74,0,0,1-11.46,4.74A16.18,16.18,0,0,1,1516,46.74a15.25,15.25,0,0,1,4.74-11.32,15.69,15.69,0,0,1,11.42-4.66,15.87,15.87,0,0,1,11.46,4.66,15.22,15.22,0,0,1,4.78,11.32A15.55,15.55,0,0,1,1543.65,58.16Zm-11.37,102.19a88.09,88.09,0,0,1-13.53-1V73.87a82.17,82.17,0,0,1,13.13-1.05,92.25,92.25,0,0,1,13.65,1.05V159.3A82.93,82.93,0,0,1,1532.28,160.35ZM1607.34,71q20.46,0,30.82,10t10.36,26.52v51.8a87,87,0,0,1-27,0V111.8q0-16.5-16.25-16.51a27.5,27.5,0,0,0-14.31,3.6V159.3a89,89,0,0,1-13.52,1,85.56,85.56,0,0,1-13.34-1V85.2q6.13-5.53,17.47-9.88A71.32,71.32,0,0,1,1607.34,71Zm68.57,12.12Q1689.69,71,1711.6,71t37.8,12.47v70.68q0,20.28-12.34,30.9t-32.44,10.63q-27.64,0-42.14-16.07a20.86,20.86,0,0,1,4.78-10.05,22.35,22.35,0,0,1,9.79-6.81,33.2,33.2,0,0,0,26.08,11.68q19.41,0,19.4-15.45v-3.07a48.87,48.87,0,0,1-14.48,2q-19.75,0-32.84-11t-13.08-31.34Q1662.13,95.21,1675.91,83.09Zm19.14,47.46a19.36,19.36,0,0,0,14,5.75,35.8,35.8,0,0,0,13.47-2.2V96a33.23,33.23,0,0,0-12-2.37,21.28,21.28,0,0,0-15.24,5.79q-6.11,5.79-6.1,15.59T1695.05,130.55Z" transform="translate(-27.92 -27.59)"/><path id="eced7f2a-e9a1-42a3-9ad6-e387b7fe5cf3" data-name="Roles" class="bb423e72-56dc-4b86-9693-7b7b02733ef1" d="M1111.94,214a58,58,0,0,1,22.17-4.08q12.2,0,20.11,2.55-.36,14-7.56,23.18a44,44,0,0,0-11.41-1.23,26.16,26.16,0,0,0-11.94,2.54V298.1a83.5,83.5,0,0,1-13.34,1,86.94,86.94,0,0,1-13.53-1v-75Q1102,218.11,1111.94,214Zm125.2,74.37q-13.22,12.6-33.8,12.6t-33.54-12.34q-12.94-12.33-13-33t13.21-33.27q13.21-12.64,33.85-12.65t33.54,12.52q12.9,12.51,12.91,33T1237.14,288.4Zm-48.16-16q5.28,6.31,14.62,6.32t14.58-6.32q5.22-6.33,5.22-16.91t-5.22-16.9q-5.23-6.31-14.58-6.32T1189,238.57q-5.26,6.33-5.26,16.9T1189,272.38Zm90,26.77a92.43,92.43,0,0,1-13.87-1V180.36a83.46,83.46,0,0,1,27,0V298.1A77.71,77.71,0,0,1,1279,299.15Zm113-49.6a79.21,79.21,0,0,1-.87,12.55h-56.81q2.37,17.47,21,17.47,11.87,0,25.2-8.6,8.43,6.5,9.75,18.17-15.81,12-36.92,12t-33.76-12q-12.64-12-12.64-32.53t12.68-33.41q12.69-12.85,31.39-12.86t29.85,10.67Q1392,231.72,1392,249.55ZM1366.6,247a17.86,17.86,0,0,0-3.6-11.41c-2.4-3-6.15-4.63-11.24-4.74s-9.13,1.28-12.11,4.21-4.78,6.91-5.36,11.94Zm73.14,54.17a72.54,72.54,0,0,1-22.92-3.25q-9.75-3.24-14.84-7.55,2.2-12.72,10.63-18,13.7,8.6,28.09,8.6,11.15,0,11.06-6.76,0-3.42-4-5.49t-12.3-3.6a91.17,91.17,0,0,1-12.64-3.07,41.43,41.43,0,0,1-9-4.52q-9.3-6-9.3-19.19T1415,217.76q10.49-7.37,27.09-7.37,22.29,0,34.68,7.9-1.59,12.56-9.31,18.7a48.44,48.44,0,0,0-24.28-6.32q-13.12,0-13.12,6.15,0,3.24,3.51,4.83t13.7,3.6q14.74,2.53,23,8.38t8.2,19q0,13.14-10.09,20.86T1439.74,301.17Z" transform="translate(-27.92 -27.59)"/></g></svg>