<svg id="b4500f68-b96b-4141-8849-12119bb0c104" data-name="Layer 1" xmlns="http://www.w3.org/2000/svg" viewBox="0 0 2245.72 284.97"><defs><style>.b447c1ef-f666-46cf-8f9a-a91f8bce7067,.e5262902-1e28-4961-b31b-d728c2dffc35{fill:#fff;}.ae441250-a807-4e51-9528-1891abaa37d4{fill:#fa0;}.b81ec0f3-dd35-49e4-88aa-281900b2d75f,.faa0fdaf-1c31-496b-a982-0b2574f6e2b4{fill:#f50;}.e5262902-1e28-4961-b31b-d728c2dffc35,.faa0fdaf-1c31-496b-a982-0b2574f6e2b4{isolation:isolate;}</style></defs><title>Shiift Front Logo RGB Reverse</title><g id="ee0d7edf-cd35-4f47-b60e-654ac9042c3a" data-name="Shiift"><path class="b447c1ef-f666-46cf-8f9a-a91f8bce7067" d="M699.62,110.38H736v40.8H699.62v147.2H641.09V151.18h0v-40.8h0V95.31c0-21.29,6.21-38.13,18.62-49.66s30.15-17.73,53.21-17.73a101.68,101.68,0,0,1,27.49,3.54V74.92a55.75,55.75,0,0,0-14.19-1.78c-17.74,0-26.6,8-26.6,23.06ZM137.41,246.06c0,5.32-2.66,8.86-6.2,12.41-3.55,2.66-9.76,4.44-17.74,4.44a37.85,37.85,0,0,1-21.28-6.21c-5.32-3.55-8.87-9.75-8.87-18.62h-55a51.09,51.09,0,0,0,9.76,30.14C45.19,278.86,55,286,67.36,292.16c13.31,6.22,27.49,8.87,43.46,8.87,24.82,0,44.34-5.32,59.41-16s23.05-24.83,23.05-41.68c0-24.83-14.19-42.56-42.56-52.32A177.38,177.38,0,0,0,121.45,184c-11.52-1.77-19.51-4.43-24.83-8a13.4,13.4,0,0,1-8-12.41,15.48,15.48,0,0,1,6.21-12.41c3.55-3.55,8.87-5.33,15.08-5.33,16,0,23.94,7.1,23.94,22.17h58.52c0-18.62-7.09-32.81-22.17-44.33s-34.58-16.85-59.41-16.85c-23,0-41.68,5.32-55.86,16.85a51.71,51.71,0,0,0-21.29,42.56c0,9.75,1.78,18.62,7.1,25.71a59.74,59.74,0,0,0,22.17,19.52c9.75,5.32,22.17,8.86,36.35,12.41,15.08,3.55,24.83,7.1,30.15,9.75,5.33,3.55,8,7.1,8,12.42m141-218.14H219.88V298.38H278.4V163.6c5.32-8,13.31-11.53,25.72-11.53,9.76,0,16.85,2.66,20.4,7.09,4.43,4.44,6.21,12.42,6.21,22.17v117h58.52V179.55c0-23.94-5.32-41.68-16-54.09s-26.6-18.62-47-18.62q-29.27,0-47.88,23.94Zm509,35.47v47H763.46v40.78H787.4v94c0,19.51,4.44,33.7,14.19,43.45,8.87,9.76,23.94,14.19,44.34,14.19a101.68,101.68,0,0,0,32.81-5.32V255.81c-3.55.89-8,.89-14.19.89-7.09,0-12.42-1.78-15.08-4.44s-3.54-8-3.54-15.07v-86h31V110.39h-31v-47Zm-207.62,23h.62a29,29,0,0,0,28.65-29.26,29.27,29.27,0,1,0-29.27,29.26h0m-96.18,0a29.26,29.26,0,1,0-29.26-29.26A29.52,29.52,0,0,0,483.6,86.44h0" transform="translate(-28.34 -27.59)"/><path id="e33504a4-5a46-4441-9200-a8e6f33608c7" data-name="Path 8083" class="ae441250-a807-4e51-9528-1891abaa37d4" d="M438.91,220.34,415.85,168a66.07,66.07,0,0,0,39-60.3h57.64a123.55,123.55,0,0,1-73.6,112.62" transform="translate(-28.34 -27.59)"/><path id="fc37154b-3237-486c-9f25-77b57c113cdd" data-name="Path 8084" class="b81ec0f3-dd35-49e4-88aa-281900b2d75f" d="M608.28,107.72H551.53a171.59,171.59,0,0,1-93.11,152.52l23.94,52.32c77.15-38.13,125.92-117.93,125.92-204.84" transform="translate(-28.34 -27.59)"/></g><rect id="a8b6ea05-8a00-4b9a-aea2-3e30eecdbecd" data-name="Divider" class="ae441250-a807-4e51-9528-1891abaa37d4" x="956.34" width="7.89" height="273.94"/><path id="a18c0a1b-1dcb-4d28-8bd9-11a8e4d0cacd" data-name="Roles" class="e5262902-1e28-4961-b31b-d728c2dffc35" d="M1112.36,214a58,58,0,0,1,22.17-4.08q12.21,0,20.11,2.55-.36,14-7.55,23.18a44.12,44.12,0,0,0-11.42-1.23,26.16,26.16,0,0,0-11.94,2.54V298.1a83.5,83.5,0,0,1-13.34,1,86.71,86.71,0,0,1-13.52-1v-75Q1102.39,218.11,1112.36,214Zm125.2,74.37q-13.21,12.6-33.8,12.6t-33.54-12.34q-12.95-12.33-13-33t13.21-33.27q13.21-12.64,33.85-12.65t33.54,12.52q12.9,12.51,12.91,33T1237.56,288.4Zm-48.15-16q5.27,6.31,14.61,6.32t14.58-6.32q5.22-6.33,5.22-16.91t-5.22-16.9q-5.22-6.31-14.58-6.32t-14.61,6.32q-5.28,6.33-5.27,16.9T1189.41,272.38Zm90,26.77a92.43,92.43,0,0,1-13.87-1V180.36a83.46,83.46,0,0,1,27,0V298.1A77.71,77.71,0,0,1,1279.4,299.15Zm113-49.6a79.21,79.21,0,0,1-.87,12.55h-56.81q2.37,17.47,21,17.47,11.86,0,25.2-8.6,8.43,6.5,9.75,18.17-15.81,12-36.92,12t-33.76-12q-12.64-12-12.64-32.53T1320,223.25q12.67-12.85,31.38-12.86t29.85,10.67Q1392.4,231.72,1392.39,249.55ZM1367,247a17.86,17.86,0,0,0-3.6-11.41c-2.4-3-6.14-4.63-11.24-4.74s-9.13,1.28-12.11,4.21-4.77,6.91-5.36,11.94Zm73.14,54.17a72.54,72.54,0,0,1-22.92-3.25q-9.75-3.24-14.84-7.55,2.2-12.72,10.63-18,13.7,8.6,28.09,8.6c7.44,0,11.12-2.25,11.07-6.76q0-3.42-4-5.49c-2.7-1.37-6.79-2.57-12.3-3.6a91.17,91.17,0,0,1-12.64-3.07,41.14,41.14,0,0,1-9-4.52q-9.32-6-9.31-19.19t10.49-20.59q10.5-7.37,27.09-7.37,22.29,0,34.68,7.9-1.59,12.56-9.31,18.7a48.43,48.43,0,0,0-24.27-6.32q-13.14,0-13.13,6.15,0,3.24,3.51,4.83t13.7,3.6q14.74,2.53,23,8.38t8.21,19q0,13.14-10.1,20.86T1440.16,301.17Z" transform="translate(-28.34 -27.59)"/><path class="faa0fdaf-1c31-496b-a982-0b2574f6e2b4" d="M1138.28,71.7q20.88,0,33.87,11.58t13,32.91q0,21.24-13.6,33.61t-36.24,12.37q-22.63,0-38.43-8.16V41.25a70,70,0,0,1,13.33-1,73.07,73.07,0,0,1,13.52,1V73.81A45.81,45.81,0,0,1,1138.28,71.7Zm-1.84,67.92q10.26,0,16.06-6.15t5.7-16.23q0-10.17-5.79-16.41t-16-6.14a37.31,37.31,0,0,0-12.72,2.11v40.8A42.32,42.32,0,0,0,1136.44,139.62Zm98.28-67.92q19.56,0,30.71,9t11.14,28.34v44.75a108.5,108.5,0,0,1-41.15,8.43q-40.64,0-40.63-28.08,0-13.17,10.18-20.14t27-6.8a70.45,70.45,0,0,1,18,2.54v-3.42q0-12.54-17.63-12.63-13.51,0-23.17,7.37-9.73-5.35-11.49-17,5-4.47,14.83-8.42A59.15,59.15,0,0,1,1234.72,71.7Zm-13.17,61.42a8.9,8.9,0,0,0,4,7.64q3.95,2.81,10.79,2.81a48.34,48.34,0,0,0,13.69-2V125.93a49.68,49.68,0,0,0-14.74-1.93Q1221.56,124,1221.55,133.12Zm87-57.78a58,58,0,0,1,22.16-4.08q12.19,0,20.09,2.55-.35,14-7.54,23.16a44.09,44.09,0,0,0-11.41-1.23,26,26,0,0,0-11.93,2.55v61.07a83.5,83.5,0,0,1-13.34,1,86.68,86.68,0,0,1-13.51-1V84.43Q1298.59,79.42,1308.55,75.34Zm185.19,23.74a28,28,0,0,1-1.75,10.53h-15.62v40.45q-15.09,11.85-39.93,11.84-19.21.09-32.38-8.33T1391,127.33q0-20.88,18.69-29-13.86-8.25-13.86-24.83,0-14.22,10.35-23.08t27.55-8.86q21.77,0,33.43,9.65a25.93,25.93,0,0,1-3.68,11.23,26.45,26.45,0,0,1-7.63,8.34q-9.22-5.53-17.64-5.53-16,0-16,11.93t17.11,11.94h52.47A22,22,0,0,1,1493.74,99.08Zm-41.68,10.53h-14.39q-18.51.35-18.51,14.56a13,13,0,0,0,4.65,10.27q4.56,3.85,13,3.86a42.32,42.32,0,0,0,15.27-2.63Zm191.73-38.52q17.37,0,27.46,9.47t10.09,25.1v53.7a87.44,87.44,0,0,1-27,0V111.54q0-16.14-15.1-16.15a24.08,24.08,0,0,0-14.39,4.83c.24,2.4.38,4.21.44,5.44v53.7a86.68,86.68,0,0,1-13.51,1,83.5,83.5,0,0,1-13.34-1V111.54q0-16.14-15.27-16.15a25.84,25.84,0,0,0-13.77,3.6v60.37a89,89,0,0,1-13.51,1,85.56,85.56,0,0,1-13.34-1V85.3q6.13-5.17,17.64-9.65t27.28-4.56q15.79,0,26.06,8.16Q1626.41,71.09,1643.79,71.09Zm80.68-12.81a16.17,16.17,0,0,1-27.6-11.41,15.25,15.25,0,0,1,4.74-11.32,16.37,16.37,0,0,1,22.86,0,15.18,15.18,0,0,1,4.78,11.32A15.47,15.47,0,0,1,1724.47,58.28Zm-11.36,102.13a87.74,87.74,0,0,1-13.51-1V74a81.92,81.92,0,0,1,13.11-1,92.25,92.25,0,0,1,13.65,1v85.38A82.93,82.93,0,0,1,1713.11,160.41Zm103.63,0a133.53,133.53,0,0,1-16.24-.7l-18-26.24L1766,159.71a133,133,0,0,1-14.83.7,60.74,60.74,0,0,1-14.3-1.4l30-42.21-29.49-41q5.53-2.37,15.62-2.37a120.15,120.15,0,0,1,13.87.52L1783.83,100l16-26.06a140.35,140.35,0,0,1,14-.52q9.21,0,14.74,2.37L1799.45,117l31.24,42Q1827.8,160.41,1816.74,160.41Zm94.54-10.75q-13.2,12.6-33.78,12.6T1844,149.93Q1831,137.6,1831,117t13.2-33.26q13.21-12.63,33.83-12.63t33.52,12.5q12.9,12.51,12.9,33T1911.28,149.66Zm-48.13-16q5.26,6.32,14.61,6.32t14.57-6.32q5.22-6.32,5.22-16.89t-5.22-16.89q-5.22-6.32-14.57-6.32t-14.61,6.32q-5.26,6.31-5.26,16.89T1863.15,133.65Zm89.94,26.76a92.39,92.39,0,0,1-13.86-1V41.69a83.4,83.4,0,0,1,26.94,0V159.36A77.71,77.71,0,0,1,1953.09,160.41Zm108.15-10.75q-13.2,12.6-33.78,12.6t-33.52-12.33Q1981,137.6,1981,117t13.2-33.26q13.21-12.63,33.83-12.63t33.52,12.5q12.9,12.51,12.9,33T2061.24,149.66Zm-48.13-16q5.27,6.32,14.61,6.32t14.57-6.32q5.22-6.32,5.22-16.89t-5.22-16.89q-5.22-6.32-14.57-6.32t-14.61,6.32q-5.27,6.31-5.26,16.89T2013.11,133.65Zm85.11-50.45q13.79-12.12,35.67-12.11t37.78,12.46v70.63q0,20.28-12.33,30.89t-32.42,10.62q-27.65,0-42.12-16.06a20.86,20.86,0,0,1,4.78-10,22.27,22.27,0,0,1,9.79-6.8,33.18,33.18,0,0,0,26.06,11.67q19.38,0,19.39-15.44v-3.07a48.86,48.86,0,0,1-14.48,2q-19.74,0-32.82-11t-13.07-31.33Q2084.45,95.31,2098.22,83.2Zm19.13,47.42a19.35,19.35,0,0,0,14,5.75,35.81,35.81,0,0,0,13.47-2.19V96.09a33.47,33.47,0,0,0-12-2.36,21.26,21.26,0,0,0-15.23,5.79q-6.09,5.79-6.1,15.57T2117.35,130.62Zm141.23-57a60.81,60.81,0,0,1,15.49,2.2q-5.54,41.33-21.81,71.51a146.23,146.23,0,0,1-44.88,50.45,21.14,21.14,0,0,1-10-7.11,34.36,34.36,0,0,1-6-11.4q16.14-12.72,23.34-22.64a206,206,0,0,1-19.48-37.82,301.47,301.47,0,0,1-12.46-43.17,69.86,69.86,0,0,1,16.59-2,122.72,122.72,0,0,1,13,.53A244.19,244.19,0,0,0,2229,132.25q1.05,2.53,1.75,4.82a18.06,18.06,0,0,1,1.49-4.82q9.57-22.11,14-58.09Q2251.43,73.64,2258.58,73.63Z" transform="translate(-28.34 -27.59)"/></svg>