<svg id="b5860d5f-6122-4e14-be46-a1a269caa190" data-name="Layer 1" xmlns="http://www.w3.org/2000/svg" viewBox="0 0 1660.71 284.97"><defs><style>.a169f90b-2402-40d8-a0b5-1e3b3b36bfe3{fill:#fa0;}.ab53ee59-ff6b-4f91-b74f-aebc8791a0de,.f52f6b81-3fc5-4765-ba85-c3911a17ebee{fill:#f50;}.ab53ee59-ff6b-4f91-b74f-aebc8791a0de,.bfa87e91-3f40-4eba-8097-d99124e7b942{isolation:isolate;}</style></defs><title>Shiift Kitchen Logo RGB</title><g id="e9350be0-1dd4-4b66-9639-ffdb0ca6671f" data-name="Shiift"><path d="M699.19,110.38h36.36v40.8H699.19v147.2H640.67V151.18h0v-40.8h0V95.31c0-21.29,6.2-38.13,18.62-49.66s30.15-17.73,53.21-17.73A101.68,101.68,0,0,1,740,31.46V74.92a55.75,55.75,0,0,0-14.19-1.78c-17.74,0-26.61,8-26.61,23.06ZM137,246.06c0,5.32-2.66,8.86-6.21,12.41-3.54,2.66-9.75,4.44-17.73,4.44a37.83,37.83,0,0,1-21.28-6.21c-5.32-3.55-8.87-9.75-8.87-18.62h-55a51,51,0,0,0,9.76,30.14c7.09,10.64,16.85,17.73,29.26,23.94,13.31,6.22,27.49,8.87,43.45,8.87,24.83,0,44.34-5.32,59.42-16s23.05-24.83,23.05-41.68c0-24.83-14.19-42.56-42.56-52.32A177.38,177.38,0,0,0,121,184c-11.53-1.77-19.51-4.43-24.83-8a13.38,13.38,0,0,1-8-12.41,15.48,15.48,0,0,1,6.21-12.41c3.55-3.55,8.87-5.33,15.07-5.33,16,0,23.95,7.1,23.95,22.17H192c0-18.62-7.09-32.81-22.17-44.33s-34.58-16.85-59.41-16.85c-23.06,0-41.68,5.32-55.86,16.85a51.71,51.71,0,0,0-21.29,42.56c0,9.75,1.78,18.62,7.1,25.71a59.74,59.74,0,0,0,22.17,19.52c9.75,5.32,22.16,8.86,36.35,12.41,15.08,3.55,24.83,7.1,30.15,9.75,5.33,3.55,8,7.1,8,12.42M278,27.92H219.46V298.38H278V163.6c5.32-8,13.3-11.53,25.72-11.53,9.76,0,16.85,2.66,20.4,7.09,4.43,4.44,6.21,12.42,6.21,22.17v117h58.52V179.55c0-23.94-5.32-41.68-16-54.09s-26.6-18.62-47-18.62q-29.26,0-47.88,23.94ZM787,63.39v47H763v40.78H787v94c0,19.51,4.44,33.7,14.19,43.45,8.87,9.76,23.94,14.19,44.34,14.19a101.68,101.68,0,0,0,32.81-5.32V255.81c-3.55.89-8,.89-14.19.89-7.1,0-12.42-1.78-15.08-4.44s-3.54-8-3.54-15.07v-86h31V110.39h-31v-47Zm-207.62,23H580a29,29,0,0,0,28.65-29.26,29.27,29.27,0,1,0-29.27,29.26h0m-96.18,0a29.26,29.26,0,1,0-29.26-29.26,29.52,29.52,0,0,0,29.26,29.26h0" transform="translate(-27.92 -27.59)"/><path id="b3ae5127-db77-4f78-87b2-4b0b1b621654" data-name="Path 8083" class="a169f90b-2402-40d8-a0b5-1e3b3b36bfe3" d="M438.49,220.34,415.43,168a66.07,66.07,0,0,0,39-60.3h57.64a123.55,123.55,0,0,1-73.6,112.62" transform="translate(-27.92 -27.59)"/><path id="b87bec0a-50dc-4beb-b835-4ebd1c19cc2b" data-name="Path 8084" class="f52f6b81-3fc5-4765-ba85-c3911a17ebee" d="M607.86,107.72H551.11A171.6,171.6,0,0,1,458,260.24l23.94,52.32c77.15-38.13,125.92-117.93,125.92-204.84" transform="translate(-27.92 -27.59)"/></g><rect id="bb60f172-cb46-4e71-967b-377cebc203e0" data-name="Divider" class="a169f90b-2402-40d8-a0b5-1e3b3b36bfe3" x="956.34" width="7.89" height="273.94"/><path id="eddfbff2-3a48-46f2-afac-d7ab6456c44e" data-name="Roles" class="bfa87e91-3f40-4eba-8097-d99124e7b942" d="M1111.94,214a58,58,0,0,1,22.17-4.08q12.2,0,20.11,2.55-.36,14-7.56,23.18a44,44,0,0,0-11.41-1.23,26.16,26.16,0,0,0-11.94,2.54V298.1a83.5,83.5,0,0,1-13.34,1,86.94,86.94,0,0,1-13.53-1v-75Q1102,218.11,1111.94,214Zm125.2,74.37q-13.22,12.6-33.8,12.6t-33.54-12.34q-12.94-12.33-13-33t13.21-33.27q13.21-12.64,33.85-12.65t33.54,12.52q12.9,12.51,12.91,33T1237.14,288.4Zm-48.16-16q5.28,6.31,14.62,6.32t14.58-6.32q5.22-6.33,5.22-16.91t-5.22-16.9q-5.23-6.31-14.58-6.32T1189,238.57q-5.26,6.33-5.26,16.9T1189,272.38Zm90,26.77a92.43,92.43,0,0,1-13.87-1V180.36a83.46,83.46,0,0,1,27,0V298.1A77.71,77.71,0,0,1,1279,299.15Zm113-49.6a79.21,79.21,0,0,1-.87,12.55h-56.81q2.37,17.47,21,17.47,11.87,0,25.2-8.6,8.43,6.5,9.75,18.17-15.81,12-36.92,12t-33.76-12q-12.64-12-12.64-32.53t12.68-33.41q12.69-12.85,31.39-12.86t29.85,10.67Q1392,231.72,1392,249.55ZM1366.6,247a17.86,17.86,0,0,0-3.6-11.41c-2.4-3-6.15-4.63-11.24-4.74s-9.13,1.28-12.11,4.21-4.78,6.91-5.36,11.94Zm73.14,54.17a72.54,72.54,0,0,1-22.92-3.25q-9.75-3.24-14.84-7.55,2.2-12.72,10.63-18,13.7,8.6,28.09,8.6,11.15,0,11.06-6.76,0-3.42-4-5.49t-12.3-3.6a91.17,91.17,0,0,1-12.64-3.07,41.43,41.43,0,0,1-9-4.52q-9.3-6-9.3-19.19T1415,217.76q10.49-7.37,27.09-7.37,22.29,0,34.68,7.9-1.59,12.56-9.31,18.7a48.44,48.44,0,0,0-24.28-6.32q-13.12,0-13.12,6.15,0,3.24,3.51,4.83t13.7,3.6q14.74,2.53,23,8.38t8.2,19q0,13.14-10.09,20.86T1439.74,301.17Z" transform="translate(-27.92 -27.59)"/><path class="ab53ee59-ff6b-4f91-b74f-aebc8791a0de" d="M1110.41,160a98.21,98.21,0,0,1-14-1V41.15a82.54,82.54,0,0,1,26.8,0v64.92a82.46,82.46,0,0,0,28.55-31.89,132,132,0,0,1,13.88-.52A94.37,94.37,0,0,1,1182.36,75q-14.14,25.2-32.33,41.55l36.9,41.55q-6.15,2.19-17.31,2.15t-16-.57l-24.86-28.2a50.06,50.06,0,0,1-5.53,2.64V159A76.18,76.18,0,0,1,1110.41,160ZM1219.74,57.76a16.19,16.19,0,0,1-27.63-11.42A15.29,15.29,0,0,1,1196.86,35a16.4,16.4,0,0,1,22.88,0,15.25,15.25,0,0,1,4.79,11.34A15.52,15.52,0,0,1,1219.74,57.76ZM1208.36,160a88.09,88.09,0,0,1-13.53-1V73.48a82.39,82.39,0,0,1,13.14-1,92.48,92.48,0,0,1,13.66,1V159A83.18,83.18,0,0,1,1208.36,160Zm74.94,1.67q-15.65,0-25-7.11t-9.36-22V96.85h-14.58a72.43,72.43,0,0,1-.88-10.89,74,74,0,0,1,.88-11H1249V52.49a80.71,80.71,0,0,1,26.62,0V75h29.87a53.31,53.31,0,0,1,1.23,10.63,62.76,62.76,0,0,1-1.23,11.24h-29.87v29q0,7,3,10t9.22,3q6.2,0,12-5.05a22.22,22.22,0,0,1,7.2,7.68,27.35,27.35,0,0,1,4,10.68A43.21,43.21,0,0,1,1283.3,161.68Zm78.76.35q-20,0-32.6-12.08t-12.6-33.12q0-21,13-33.64t33.25-12.61a51.79,51.79,0,0,1,17.35,2.9q8.22,2.89,12.35,6.68a29,29,0,0,1-5,10.58,31.1,31.1,0,0,1-8.83,8.31,22.73,22.73,0,0,0-15.68-6q-9,0-14.19,6.42t-5.19,16.64q0,10.25,5.1,16.83t14.85,6.58a23.94,23.94,0,0,0,16.69-6.32q10.28,5,13.7,17.66Q1382,162,1362.06,162Zm89.73-91.45q18.54,0,28.69,9.58t10.14,24.51V159a85.79,85.79,0,0,1-13.35,1,87.52,87.52,0,0,1-13.44-1V111.43q0-16.52-15.81-16.51a29.44,29.44,0,0,0-14.59,4V159a81.86,81.86,0,0,1-13.09,1,97.53,97.53,0,0,1-13.88-1V41.15a87.11,87.11,0,0,1,27,0v33A47.11,47.11,0,0,1,1451.79,70.58Zm137.75,39.8a78.08,78.08,0,0,1-.88,12.56h-56.84q2.37,17.48,21,17.48,11.87,0,25.21-8.61,8.43,6.51,9.75,18.19-15.81,12-36.94,12t-33.78-12q-12.64-12-12.65-32.55t12.7-33.42q12.69-12.87,31.4-12.87t29.87,10.67Q1589.54,92.55,1589.54,110.38Zm-25.39-2.55a17.89,17.89,0,0,0-3.6-11.42c-2.4-3-6.15-4.63-11.24-4.74s-9.14,1.29-12.13,4.21-4.77,6.91-5.36,12Zm83.28-37.25q20.47,0,30.84,10t10.36,26.53V159a87.12,87.12,0,0,1-27,0V111.43q0-16.52-16.25-16.51a27.54,27.54,0,0,0-14.32,3.6V159a89.17,89.17,0,0,1-13.53,1,85.79,85.79,0,0,1-13.35-1V84.81q6.15-5.53,17.48-9.88A71.47,71.47,0,0,1,1647.43,70.58Z" transform="translate(-27.92 -27.59)"/></svg>