<svg id="af60c9b1-d8b8-473d-8bee-0d047ce8b161" data-name="Layer 1" xmlns="http://www.w3.org/2000/svg" viewBox="0 0 850.39 284.65"><defs><style>.b9699796-73ff-48e0-a5d2-64b827801671{fill:#fff;}.a86eea0b-0626-4c76-ab29-9ebe1c8a6db5{fill:#fa0;}.b45f9762-3373-49cb-9b4b-4b0004936bdd{fill:#f50;}</style></defs><title>Shiift Master Logo RGB Reverse</title><g id="b2551d27-5a6a-485b-af65-a59778f65fa4" data-name="Shiift"><path class="b9699796-73ff-48e0-a5d2-64b827801671" d="M699.62,110.22H736V151H699.62v147.2H641.09V151h0v-40.8h0V95.15c0-21.29,6.21-38.13,18.62-49.66s30.16-17.73,53.21-17.73a101.68,101.68,0,0,1,27.49,3.54V74.76A55.64,55.64,0,0,0,726.22,73c-17.73,0-26.6,8-26.6,23.06ZM137.42,245.9c0,5.32-2.66,8.86-6.21,12.41-3.55,2.66-9.76,4.44-17.74,4.44a37.85,37.85,0,0,1-21.28-6.21c-5.32-3.55-8.86-9.75-8.86-18.62h-55a51,51,0,0,0,9.75,30.14C45.2,278.7,55,285.79,67.37,292c13.3,6.22,27.49,8.87,43.45,8.87,24.83,0,44.34-5.32,59.41-16s23.05-24.83,23.05-41.68c0-24.83-14.18-42.56-42.56-52.32a177.51,177.51,0,0,0-29.26-7.09c-11.53-1.77-19.51-4.43-24.83-8a13.37,13.37,0,0,1-8-12.41A15.44,15.44,0,0,1,94.85,151c3.55-3.55,8.87-5.32,15.08-5.32,16,0,23.94,7.09,23.94,22.16h58.52c0-18.62-7.09-32.8-22.16-44.33s-34.59-16.85-59.42-16.85c-23,0-41.67,5.32-55.86,16.85a51.68,51.68,0,0,0-21.28,42.56c0,9.75,1.77,18.62,7.09,25.72a59.88,59.88,0,0,0,22.17,19.51c9.75,5.32,22.17,8.86,36.36,12.41,15.07,3.55,24.83,7.1,30.15,9.75,5.32,3.55,8,7.1,8,12.42m141-218.14H219.89V298.22h58.52V163.44c5.31-8,13.3-11.53,25.71-11.53,9.76,0,16.85,2.66,20.4,7.09,4.44,4.44,6.21,12.42,6.21,22.17V298.22h58.52V179.39c0-23.94-5.32-41.68-16-54.09s-26.6-18.62-47-18.62q-29.25,0-47.88,23.94Zm509,35.47v47H763.46V151h23.95v94c0,19.51,4.43,33.7,14.18,43.45,8.87,9.76,23.94,14.19,44.34,14.19a101.63,101.63,0,0,0,32.81-5.32V255.65c-3.55.89-8,.89-14.19.89-7.09,0-12.41-1.78-15.07-4.44s-3.55-8-3.55-15.07V151h31V110.23h-31v-47ZM579.79,86.28c.2,0,.41,0,.62,0A29,29,0,0,0,609.05,57a29.27,29.27,0,1,0-29.26,29.26h0m-96.19,0A29.26,29.26,0,1,0,454.34,57,29.52,29.52,0,0,0,483.6,86.28h0" transform="translate(-28.35 -27.75)"/><path id="ad96f0ce-7a99-4a1d-9a57-903784aa4c92" data-name="Path 8083" class="a86eea0b-0626-4c76-ab29-9ebe1c8a6db5" d="M438.91,220.18l-23.05-52.32a66.08,66.08,0,0,0,39-60.3h57.64a123.53,123.53,0,0,1-73.6,112.62" transform="translate(-28.35 -27.75)"/><path id="a2cf4625-dd1b-4400-841a-ad7f1844b6f8" data-name="Path 8084" class="b45f9762-3373-49cb-9b4b-4b0004936bdd" d="M608.28,107.56H551.53a171.61,171.61,0,0,1-93.11,152.53l23.94,52.31c77.15-38.13,125.92-117.93,125.92-204.84" transform="translate(-28.35 -27.75)"/></g></svg>